# xmcd
#
# Track frame offsets: 
#        150
#        13100
#        30570
#        47627
#        60440
#        77417
#        94385
#        108027
#        123625
#        141157
#        158090
#
# Disc length: 2354 seconds
#
# Revision: 0
# Processed by: cddbd v1.5.2PL0 Copyright (c) Steve Scherf et al.
# Submitted via: ExactAudioCopy v0.99pb3
#
DISCID=8309300b
DTITLE=Diana Ross - the magic of diana ross cd 2
DYEAR=1998
DGENRE=Soul
TTITLE0=Reflections (Supremes)
TTITLE1=My old piano
TTITLE2=I won't last a day without you
TTITLE3=Surrender
TTITLE4=The boss
TTITLE5=Cryin' my heart out for you
TTITLE6=Imagine
TTITLE7=Some day we will be together (Supremes)
TTITLE8=Tenderness
TTITLE9=Baby, I love your way
TTITLE10=On more chance
EXTD=
EXTT0=
EXTT1=
EXTT2=
EXTT3=
EXTT4=
EXTT5=
EXTT6=
EXTT7=
EXTT8=
EXTT9=
EXTT10=
PLAYORDER=
